<?xml version="1.0" encoding="UTF-8" standalone="no"?>
<!-- Created with Inkscape (http://www.inkscape.org/) -->

<svg
   xmlns:osb="http://www.openswatchbook.org/uri/2009/osb"
   xmlns:dc="http://purl.org/dc/elements/1.1/"
   xmlns:cc="http://creativecommons.org/ns#"
   xmlns:rdf="http://www.w3.org/1999/02/22-rdf-syntax-ns#"
   xmlns:svg="http://www.w3.org/2000/svg"
   xmlns="http://www.w3.org/2000/svg"
   xmlns:xlink="http://www.w3.org/1999/xlink"
   xmlns:sodipodi="http://sodipodi.sourceforge.net/DTD/sodipodi-0.dtd"
   xmlns:inkscape="http://www.inkscape.org/namespaces/inkscape"
   width="780"
   height="340"
   id="svg2"
   sodipodi:version="0.32"
   inkscape:version="0.48.3.1 r9886"
   sodipodi:docname="pill-logger.svg"
   inkscape:output_extension="org.inkscape.output.svg.inkscape"
   version="1.0"
   inkscape:export-filename="/home/prod402/ivan/capsula.png"
   inkscape:export-xdpi="14.77"
   inkscape:export-ydpi="14.77">
  <sodipodi:namedview
     id="base"
     pagecolor="#ffffff"
     bordercolor="#666666"
     borderopacity="1.0"
     gridtolerance="10000"
     guidetolerance="10"
     objecttolerance="10"
     inkscape:pageopacity="0.0"
     inkscape:pageshadow="2"
     inkscape:zoom="0.088388348"
     inkscape:cx="987.49386"
     inkscape:cy="14.41819"
     inkscape:document-units="px"
     inkscape:current-layer="layer3"
     showgrid="false"
     inkscape:window-width="975"
     inkscape:window-height="576"
     inkscape:window-x="49"
     inkscape:window-y="24"
     showguides="true"
     inkscape:guide-bbox="true"
     inkscape:window-maximized="1"
     inkscape:snap-grids="true" />
  <defs
     id="defs4">
    <linearGradient
       id="linearGradient4219"
       osb:paint="gradient">
      <stop
         style="stop-color:#00ff00;stop-opacity:1;"
         offset="0"
         id="stop4221" />
      <stop
         style="stop-color:#00ff00;stop-opacity:0;"
         offset="1"
         id="stop4223" />
    </linearGradient>
    <linearGradient
       id="linearGradient4002"
       osb:paint="solid">
      <stop
         style="stop-color:#000000;stop-opacity:1;"
         offset="0"
         id="stop4004" />
    </linearGradient>
    <linearGradient
       id="linearGradient4080"
       inkscape:collect="always">
      <stop
         id="stop4082"
         offset="0"
         style="stop-color:#e6e6e6;stop-opacity:1" />
      <stop
         style="stop-color:#ececec;stop-opacity:1"
         offset="0.22626969"
         id="stop4084" />
      <stop
         id="stop4086"
         offset="1"
         style="stop-color:#b3b3b3;stop-opacity:1" />
    </linearGradient>
    <linearGradient
       inkscape:collect="always"
       id="linearGradient4025">
      <stop
         style="stop-color:#b7bec8;stop-opacity:1"
         offset="0"
         id="stop4027" />
      <stop
         id="stop4033"
         offset="0.22626969"
         style="stop-color:#ececec;stop-opacity:1" />
      <stop
         style="stop-color:#6f7c91;stop-opacity:1"
         offset="1"
         id="stop4029" />
    </linearGradient>
    <linearGradient
       inkscape:collect="always"
       id="linearGradient3999">
      <stop
         style="stop-color:#803300;stop-opacity:1"
         offset="0"
         id="stop4001" />
      <stop
         id="stop4007"
         offset="0.15785219"
         style="stop-color:#ff7f2a;stop-opacity:1" />
      <stop
         style="stop-color:#aa4400;stop-opacity:1"
         offset="0.31975183"
         id="stop4009" />
      <stop
         id="stop4011"
         offset="0.72854841"
         style="stop-color:#d45500;stop-opacity:1" />
      <stop
         style="stop-color:#ff9955;stop-opacity:1"
         offset="1"
         id="stop4003" />
    </linearGradient>
    <linearGradient
       inkscape:collect="always"
       id="linearGradient3985">
      <stop
         style="stop-color:#1a1a1a;stop-opacity:1"
         offset="0"
         id="stop3987" />
      <stop
         id="stop3993"
         offset="0.11217082"
         style="stop-color:#808080;stop-opacity:1" />
      <stop
         style="stop-color:#f9f9f9;stop-opacity:1"
         offset="0.34897581"
         id="stop3995" />
      <stop
         id="stop3997"
         offset="0.76026863"
         style="stop-color:#1a1a1a;stop-opacity:1" />
      <stop
         style="stop-color:#333333;stop-opacity:1"
         offset="1"
         id="stop3989" />
    </linearGradient>
    <linearGradient
       id="linearGradient3975">
      <stop
         style="stop-color:#ffffff;stop-opacity:1;"
         offset="0"
         id="stop3977" />
      <stop
         style="stop-color:#000000;stop-opacity:1;"
         offset="1"
         id="stop3979" />
    </linearGradient>
    <linearGradient
       id="linearGradient3615">
      <stop
         style="stop-color:#ffffff;stop-opacity:1;"
         offset="0"
         id="stop3617" />
      <stop
         style="stop-color:#ffffff;stop-opacity:0.57407409;"
         offset="1"
         id="stop3619" />
    </linearGradient>
    <linearGradient
       id="linearGradient2832">
      <stop
         id="stop2834"
         offset="0"
         style="stop-color:#dadada;stop-opacity:1;" />
      <stop
         id="stop2836"
         offset="1"
         style="stop-color:#919fb3;stop-opacity:1;" />
    </linearGradient>
    <linearGradient
       id="linearGradient2824">
      <stop
         id="stop2826"
         offset="0"
         style="stop-color:#0000ff;stop-opacity:1;" />
      <stop
         id="stop2828"
         offset="1"
         style="stop-color:#000080;stop-opacity:1;" />
    </linearGradient>
    <inkscape:perspective
       id="perspective10"
       inkscape:persp3d-origin="372.04724 : 350.78739 : 1"
       inkscape:vp_z="744.09448 : 526.18109 : 1"
       inkscape:vp_y="0 : 1000 : 0"
       inkscape:vp_x="0 : 526.18109 : 1"
       sodipodi:type="inkscape:persp3d" />
    <linearGradient
       gradientUnits="userSpaceOnUse"
       y2="829.26349"
       x2="240.53963"
       y1="513.18652"
       x1="240.53963"
       id="linearGradient2830"
       xlink:href="#linearGradient2824"
       inkscape:collect="always" />
    <linearGradient
       gradientUnits="userSpaceOnUse"
       y2="832.6861"
       x2="521.84869"
       y1="509.10956"
       x1="521.84869"
       id="linearGradient2838"
       xlink:href="#linearGradient2832"
       inkscape:collect="always" />
    <linearGradient
       gradientUnits="userSpaceOnUse"
       y2="511.10199"
       x2="302.71298"
       y1="691.55273"
       x1="302.71298"
       id="linearGradient2843"
       xlink:href="#linearGradient3615"
       inkscape:collect="always" />
    <clipPath
       clipPathUnits="userSpaceOnUse"
       id="clipPath3961">
      <path
         sodipodi:nodetypes="ccccc"
         id="path3963"
         d="M -1054.7188,179.55991 L -1054.7188,299.30839 L -594.71875,299.30839 L -594.71875,179.55991 L -1054.7188,179.55991 z"
         style="opacity:1;fill:#ffffff;fill-opacity:1;fill-rule:evenodd;stroke:#000000;stroke-width:4;stroke-linecap:butt;stroke-linejoin:miter;marker:none;marker-start:none;marker-mid:none;marker-end:none;stroke-miterlimit:4;stroke-dasharray:none;stroke-dashoffset:0;stroke-opacity:1;visibility:visible;display:inline;overflow:visible;enable-background:accumulate" />
    </clipPath>
    <linearGradient
       inkscape:collect="always"
       xlink:href="#linearGradient2824"
       id="linearGradient4244"
       gradientUnits="userSpaceOnUse"
       gradientTransform="translate(-6.0790274,-162.1074)"
       x1="240.53963"
       y1="513.18652"
       x2="240.53963"
       y2="829.26349" />
    <linearGradient
       inkscape:collect="always"
       xlink:href="#linearGradient2832"
       id="linearGradient4246"
       gradientUnits="userSpaceOnUse"
       gradientTransform="translate(-6.0790274,-162.1074)"
       x1="521.84869"
       y1="509.10956"
       x2="521.84869"
       y2="832.6861" />
    <linearGradient
       inkscape:collect="always"
       xlink:href="#linearGradient3615"
       id="linearGradient4248"
       gradientUnits="userSpaceOnUse"
       gradientTransform="translate(-6.0790274,-162.1074)"
       x1="302.71298"
       y1="691.55273"
       x2="302.71298"
       y2="511.10199" />
    <linearGradient
       inkscape:collect="always"
       xlink:href="#linearGradient2824"
       id="linearGradient4258"
       gradientUnits="userSpaceOnUse"
       gradientTransform="translate(-6.0790274,-162.1074)"
       x1="240.53963"
       y1="513.18652"
       x2="240.53963"
       y2="829.26349" />
    <linearGradient
       inkscape:collect="always"
       xlink:href="#linearGradient2832"
       id="linearGradient4260"
       gradientUnits="userSpaceOnUse"
       gradientTransform="translate(-6.0790274,-162.1074)"
       x1="521.84869"
       y1="509.10956"
       x2="521.84869"
       y2="832.6861" />
    <linearGradient
       inkscape:collect="always"
       xlink:href="#linearGradient3615"
       id="linearGradient4262"
       gradientUnits="userSpaceOnUse"
       gradientTransform="translate(-6.0790274,-162.1074)"
       x1="302.71298"
       y1="691.55273"
       x2="302.71298"
       y2="511.10199" />
    <linearGradient
       inkscape:collect="always"
       xlink:href="#linearGradient3999"
       id="linearGradient4314"
       gradientUnits="userSpaceOnUse"
       x1="-1105.5135"
       y1="644.94727"
       x2="-540.01556"
       y2="644.94727" />
    <linearGradient
       inkscape:collect="always"
       xlink:href="#linearGradient3985"
       id="linearGradient4316"
       gradientUnits="userSpaceOnUse"
       x1="-1054.567"
       y1="183.1503"
       x2="-592.70581"
       y2="183.1503" />
    <linearGradient
       inkscape:collect="always"
       xlink:href="#linearGradient3975"
       id="linearGradient4318"
       gradientUnits="userSpaceOnUse"
       x1="-1050.2964"
       y1="156.65462"
       x2="-599.19025"
       y2="156.65462" />
    <linearGradient
       inkscape:collect="always"
       xlink:href="#linearGradient4025"
       id="linearGradient4320"
       gradientUnits="userSpaceOnUse"
       x1="-1096.3582"
       y1="654.10266"
       x2="-540.00146"
       y2="654.10266" />
    <linearGradient
       inkscape:collect="always"
       xlink:href="#linearGradient4080"
       id="linearGradient4322"
       gradientUnits="userSpaceOnUse"
       gradientTransform="matrix(1,0,0,0.7367722,0,173.76324)"
       x1="-1096.3582"
       y1="654.10266"
       x2="-540.00146"
       y2="654.10266" />
    <linearGradient
       inkscape:collect="always"
       xlink:href="#linearGradient2824"
       id="linearGradient4324"
       gradientUnits="userSpaceOnUse"
       gradientTransform="translate(-6.0790274,-162.1074)"
       x1="240.53963"
       y1="513.18652"
       x2="240.53963"
       y2="829.26349" />
    <linearGradient
       inkscape:collect="always"
       xlink:href="#linearGradient2832"
       id="linearGradient4326"
       gradientUnits="userSpaceOnUse"
       gradientTransform="translate(-6.0790274,-162.1074)"
       x1="521.84869"
       y1="509.10956"
       x2="521.84869"
       y2="832.6861" />
    <linearGradient
       inkscape:collect="always"
       xlink:href="#linearGradient3615"
       id="linearGradient4328"
       gradientUnits="userSpaceOnUse"
       gradientTransform="translate(-6.0790274,-162.1074)"
       x1="302.71298"
       y1="691.55273"
       x2="302.71298"
       y2="511.10199" />
    <linearGradient
       inkscape:collect="always"
       xlink:href="#linearGradient2824"
       id="linearGradient4330"
       gradientUnits="userSpaceOnUse"
       gradientTransform="translate(-6.0790274,-162.1074)"
       x1="240.53963"
       y1="513.18652"
       x2="240.53963"
       y2="829.26349" />
    <linearGradient
       inkscape:collect="always"
       xlink:href="#linearGradient2832"
       id="linearGradient4332"
       gradientUnits="userSpaceOnUse"
       gradientTransform="translate(-6.0790274,-162.1074)"
       x1="521.84869"
       y1="509.10956"
       x2="521.84869"
       y2="832.6861" />
    <linearGradient
       inkscape:collect="always"
       xlink:href="#linearGradient3615"
       id="linearGradient4334"
       gradientUnits="userSpaceOnUse"
       gradientTransform="translate(-6.0790274,-162.1074)"
       x1="302.71298"
       y1="691.55273"
       x2="302.71298"
       y2="511.10199" />
    <filter
       inkscape:collect="always"
       id="filter4349">
      <feGaussianBlur
         inkscape:collect="always"
         stdDeviation="7.5526902"
         id="feGaussianBlur4351" />
    </filter>
    <linearGradient
       inkscape:collect="always"
       xlink:href="#linearGradient3975"
       id="linearGradient4654"
       x1="-228.21782"
       y1="680.56085"
       x2="617.31909"
       y2="680.56085"
       gradientUnits="userSpaceOnUse"
       gradientTransform="matrix(1,0,0,1.0033546,0,-3.6971897)" />
    <linearGradient
       inkscape:collect="always"
       xlink:href="#linearGradient3975-2"
       id="linearGradient4654-1"
       x1="-228.21782"
       y1="680.56085"
       x2="617.31909"
       y2="680.56085"
       gradientUnits="userSpaceOnUse"
       gradientTransform="matrix(1,0,0,1.0033546,0,-3.6971897)" />
    <linearGradient
       id="linearGradient3975-2">
      <stop
         style="stop-color:#ffffff;stop-opacity:1;"
         offset="0"
         id="stop3977-6" />
      <stop
         style="stop-color:#000000;stop-opacity:1;"
         offset="1"
         id="stop3979-0" />
    </linearGradient>
    <linearGradient
       y2="680.56085"
       x2="617.31909"
       y1="680.56085"
       x1="-228.21782"
       gradientTransform="matrix(1.0024093,0,0,0.98804859,0.11042685,11.651221)"
       gradientUnits="userSpaceOnUse"
       id="linearGradient4671"
       xlink:href="#linearGradient3975-2"
       inkscape:collect="always" />
    <linearGradient
       id="linearGradient3615-9">
      <stop
         style="stop-color:#ffffff;stop-opacity:1;"
         offset="0"
         id="stop3617-4" />
      <stop
         style="stop-color:#ffffff;stop-opacity:0.57407409;"
         offset="1"
         id="stop3619-6" />
    </linearGradient>
    <linearGradient
       id="linearGradient2832-3">
      <stop
         id="stop2834-6"
         offset="0"
         style="stop-color:#dadada;stop-opacity:1;" />
      <stop
         id="stop2836-2"
         offset="1"
         style="stop-color:#919fb3;stop-opacity:1;" />
    </linearGradient>
    <linearGradient
       inkscape:collect="always"
       xlink:href="#linearGradient2824-5"
       id="linearGradient3070-4"
       gradientUnits="userSpaceOnUse"
       gradientTransform="translate(-1055.025,-470.90086)"
       x1="240.53963"
       y1="513.18652"
       x2="240.53963"
       y2="829.26349" />
    <linearGradient
       id="linearGradient2824-5">
      <stop
         id="stop2826-8"
         offset="0"
         style="stop-color:#ff0000;stop-opacity:1;" />
      <stop
         id="stop2828-8"
         offset="1"
         style="stop-color:#800000;stop-opacity:1;" />
    </linearGradient>
    <linearGradient
       inkscape:collect="always"
       xlink:href="#linearGradient2824-5"
       id="linearGradient4759"
       gradientUnits="userSpaceOnUse"
       gradientTransform="translate(-1554.4964,-1017.6406)"
       x1="240.53963"
       y1="513.18652"
       x2="240.53963"
       y2="829.26349" />
    <linearGradient
       inkscape:collect="always"
       xlink:href="#linearGradient2832-3"
       id="linearGradient4761"
       gradientUnits="userSpaceOnUse"
       gradientTransform="matrix(-1,0,0,1,-809.43508,-1017.6406)"
       x1="521.84869"
       y1="509.10956"
       x2="521.84869"
       y2="832.6861" />
    <linearGradient
       inkscape:collect="always"
       xlink:href="#linearGradient3615-9"
       id="linearGradient4763"
       gradientUnits="userSpaceOnUse"
       gradientTransform="matrix(-1,0,0,1,-809.43508,-1017.6406)"
       x1="302.71298"
       y1="691.55273"
       x2="302.71298"
       y2="511.10199" />
    <linearGradient
       inkscape:collect="always"
       xlink:href="#linearGradient3975-2"
       id="linearGradient4909"
       gradientUnits="userSpaceOnUse"
       gradientTransform="matrix(1.0024093,0,0,0.98804859,-25.345391,-261.9042)"
       x1="-228.21782"
       y1="680.56085"
       x2="617.31909"
       y2="680.56085" />
    <linearGradient
       inkscape:collect="always"
       xlink:href="#linearGradient3615-9"
       id="linearGradient3098"
       gradientUnits="userSpaceOnUse"
       gradientTransform="matrix(-0.9847452,0,0,1.0012252,761.41129,-496.6545)"
       x1="302.71298"
       y1="691.55273"
       x2="302.71298"
       y2="511.10199" />
    <linearGradient
       inkscape:collect="always"
       xlink:href="#linearGradient2832-3"
       id="linearGradient3101"
       gradientUnits="userSpaceOnUse"
       gradientTransform="matrix(-0.9847452,0,0,1.0012252,761.41129,-496.6545)"
       x1="521.84869"
       y1="509.10956"
       x2="521.84869"
       y2="832.6861" />
    <linearGradient
       inkscape:collect="always"
       xlink:href="#linearGradient2824-5"
       id="linearGradient3104"
       gradientUnits="userSpaceOnUse"
       gradientTransform="matrix(0.9847452,0,0,1.0012252,27.715732,-496.6545)"
       x1="240.53963"
       y1="513.18652"
       x2="240.53963"
       y2="829.26349" />
    <linearGradient
       inkscape:collect="always"
       xlink:href="#linearGradient2824-5"
       id="linearGradient3896"
       gradientUnits="userSpaceOnUse"
       gradientTransform="matrix(0.9847452,0,0,1.0012252,27.715732,-496.6545)"
       x1="240.53963"
       y1="513.18652"
       x2="240.53963"
       y2="829.26349" />
    <linearGradient
       inkscape:collect="always"
       xlink:href="#linearGradient2832-3"
       id="linearGradient3898"
       gradientUnits="userSpaceOnUse"
       gradientTransform="matrix(-0.9847452,0,0,1.0012252,761.41129,-496.6545)"
       x1="521.84869"
       y1="509.10956"
       x2="521.84869"
       y2="832.6861" />
    <linearGradient
       inkscape:collect="always"
       xlink:href="#linearGradient3615-9"
       id="linearGradient3900"
       gradientUnits="userSpaceOnUse"
       gradientTransform="matrix(-0.9847452,0,0,1.0012252,761.41129,-496.6545)"
       x1="302.71298"
       y1="691.55273"
       x2="302.71298"
       y2="511.10199" />
  </defs>
  <metadata
     id="metadata7">
    <rdf:RDF>
      <cc:Work
         rdf:about="">
        <dc:format>image/svg+xml</dc:format>
        <dc:type
           rdf:resource="http://purl.org/dc/dcmitype/StillImage" />
        <dc:title />
      </cc:Work>
    </rdf:RDF>
  </metadata>
  <g
     style="display:inline"
     id="layer1"
     inkscape:groupmode="layer"
     inkscape:label="Layer 1" />
  <g
     style="display:none"
     inkscape:label="pillole"
     id="layer2"
     inkscape:groupmode="layer"
     sodipodi:insensitive="true">
    <path
       id="path2815"
       d="M 206.20197,204.44989 C 206.20197,271.47846 118.52197,325.87846 10.48769,325.87846 C -97.54659,325.87846 -185.22659,271.47846 -185.22659,204.44989 C -185.22659,137.42131 -97.54659,83.02131 10.48769,83.02131 C 118.52197,83.02131 206.20197,137.42131 206.20197,204.44989 z"
       style="opacity:1;fill:#808080;fill-opacity:1;fill-rule:evenodd;stroke:#000000;stroke-width:2;stroke-linecap:butt;stroke-linejoin:miter;marker:none;marker-start:none;marker-mid:none;marker-end:none;stroke-miterlimit:4;stroke-dasharray:none;stroke-dashoffset:0;stroke-opacity:1;visibility:visible;display:inline;overflow:visible;enable-background:accumulate" />
    <path
       style="opacity:1;fill:#808080;fill-opacity:1;fill-rule:evenodd;stroke:#000000;stroke-width:2;stroke-linecap:butt;stroke-linejoin:miter;marker:none;marker-start:none;marker-mid:none;marker-end:none;stroke-miterlimit:4;stroke-dasharray:none;stroke-dashoffset:0;stroke-opacity:1;visibility:visible;display:inline;overflow:visible;enable-background:accumulate"
       d="M 736.20197,204.44989 C 736.20197,271.47846 648.52197,325.87846 540.48769,325.87846 C 432.45341,325.87846 344.77341,271.47846 344.77341,204.44989 C 344.77341,137.42131 432.45341,83.02131 540.48769,83.02131 C 648.52197,83.02131 736.20197,137.42131 736.20197,204.44989 z"
       id="path2383" />
    <path
       d="M 540.5,53.03125 C 432.46572,53.03125 344.78125,107.40892 344.78125,174.4375 L 344.78125,204.4375 C 344.78125,137.40892 432.46572,83.03125 540.5,83.03125 L 540.5,53.03125 z"
       id="path2698"
       style="fill:#808080;fill-opacity:1;fill-rule:evenodd;stroke:#000000;stroke-width:2;stroke-linecap:butt;stroke-linejoin:miter;marker:none;marker-start:none;marker-mid:none;marker-end:none;stroke-miterlimit:4;stroke-dasharray:none;stroke-dashoffset:0;stroke-opacity:1;visibility:visible" />
    <path
       d="M 344.78125,174.4375 C 344.78125,174.4375 344.78125,174.4375 344.78125,174.4375 L 344.78125,204.4375 C 344.78125,204.4375 344.78125,204.4375 344.78125,204.4375 L 344.78125,174.4375 z"
       id="path2700"
       style="fill:#808080;fill-opacity:1;fill-rule:evenodd;stroke:#000000;stroke-width:2;stroke-linecap:butt;stroke-linejoin:miter;marker:none;marker-start:none;marker-mid:none;marker-end:none;stroke-miterlimit:4;stroke-dasharray:none;stroke-dashoffset:0;stroke-opacity:1;visibility:visible" />
    <path
       d="M 649.125,73.46875 C 618.03453,60.561666 580.69088,53.03125 540.5,53.03125 L 540.5,83.03125 C 580.69088,83.03125 618.03453,90.561666 649.125,103.46875 L 649.125,73.46875 z"
       id="path2706"
       style="fill:#808080;fill-opacity:1;fill-rule:evenodd;stroke:#000000;stroke-width:2;stroke-linecap:butt;stroke-linejoin:miter;marker:none;marker-start:none;marker-mid:none;marker-end:none;stroke-miterlimit:4;stroke-dasharray:none;stroke-dashoffset:0;stroke-opacity:1;visibility:visible" />
    <path
       d="M 710.65625,114.46875 L 431.84375,275.4375 L 431.84375,305.4375 L 710.65625,144.46875 L 710.65625,114.46875 z"
       id="path2708"
       style="fill:#808080;fill-opacity:1;fill-rule:evenodd;stroke:#000000;stroke-width:2;stroke-linecap:butt;stroke-linejoin:miter;marker:none;marker-start:none;marker-mid:none;marker-end:none;stroke-miterlimit:4;stroke-dasharray:none;stroke-dashoffset:0;stroke-opacity:1;visibility:visible" />
    <path
       d="M 736.1875,174.4375 C 736.1875,152.62488 726.90666,132.1671 710.65625,114.46875 L 710.65625,144.46875 C 726.90666,162.1671 736.1875,182.62488 736.1875,204.4375 L 736.1875,174.4375 z"
       id="path2714"
       style="fill:#808080;fill-opacity:1;fill-rule:evenodd;stroke:#000000;stroke-width:2;stroke-linecap:butt;stroke-linejoin:miter;marker:none;marker-start:none;marker-mid:none;marker-end:none;stroke-miterlimit:4;stroke-dasharray:none;stroke-dashoffset:0;stroke-opacity:1;visibility:visible" />
    <path
       id="path2437"
       d="M 540.5,53.03125 C 432.46572,53.03125 344.78125,107.40892 344.78125,174.4375 C 344.78125,196.25647 354.08455,216.73561 370.34375,234.4375 L 649.125,73.46875 C 618.03453,60.561666 580.69088,53.03125 540.5,53.03125 z M 710.65625,114.46875 L 431.84375,275.4375 C 462.93422,288.34458 500.30913,295.875 540.5,295.875 C 648.53428,295.875 736.1875,241.46607 736.1875,174.4375 C 736.1875,152.62488 726.90666,132.1671 710.65625,114.46875 z"
       style="fill:#808080;fill-opacity:1;fill-rule:evenodd;stroke:#000000;stroke-width:2;stroke-linecap:butt;stroke-linejoin:miter;marker:none;marker-start:none;marker-mid:none;marker-end:none;stroke-miterlimit:4;stroke-dasharray:none;stroke-dashoffset:0;stroke-opacity:1;visibility:visible;display:inline;overflow:visible;enable-background:accumulate" />
    <path
       d="M 370.34375,234.4375 L 649.125,73.46875 L 649.125,103.46875 L 370.34375,264.4375 L 370.34375,234.4375 z"
       id="path2704"
       style="fill:#808080;fill-opacity:1;fill-rule:evenodd;stroke:#000000;stroke-width:2;stroke-linecap:butt;stroke-linejoin:miter;marker:none;marker-start:none;marker-mid:none;marker-end:none;stroke-miterlimit:4;stroke-dasharray:none;stroke-dashoffset:0;stroke-opacity:1;visibility:visible" />
    <path
       sodipodi:nodetypes="cccscccccccccc"
       id="path2702"
       d="M 344.78125,174.4375 L 344.78125,204.4375 L 344.78125,244.4375 C 344.78125,311.46607 432.46571,365.875 540.5,365.875 C 648.53429,365.875 736.1875,311.46607 736.1875,244.4375 L 736.1875,204.4375 L 736.1875,174.4375 C 724.98559,271.24733 621.35159,288.39128 540.5,295.875 C 500.30913,295.875 462.93422,288.34458 431.84375,275.4375 L 431.84375,305.4375 C 406.56412,294.94205 385.45208,280.88792 370.34375,264.4375 L 370.34375,234.4375 C 357.5692,220.52945 349.07963,204.92092 346.03125,188.28125 C 345.7505,183.83084 345.1389,179.47195 344.78125,174.4375 z"
       style="fill:#782121;fill-opacity:1;fill-rule:evenodd;stroke:#000000;stroke-width:2;stroke-linecap:butt;stroke-linejoin:miter;marker:none;marker-start:none;marker-mid:none;marker-end:none;stroke-miterlimit:4;stroke-dasharray:none;stroke-dashoffset:0;stroke-opacity:1;visibility:visible" />
    <path
       style="fill:#808080;fill-opacity:1;fill-rule:evenodd;stroke:#000000;stroke-width:2;stroke-linecap:butt;stroke-linejoin:miter;marker:none;marker-start:none;marker-mid:none;marker-end:none;stroke-miterlimit:4;stroke-dasharray:none;stroke-dashoffset:0;stroke-opacity:1;visibility:visible;display:inline;overflow:visible;enable-background:accumulate"
       d="M 10.5,53.03125 C -97.53428,53.03125 -185.21875,107.40892 -185.21875,174.4375 C -185.21875,196.25647 -175.91545,216.73561 -159.65625,234.4375 L 119.125,73.46875 C 88.03453,60.561666 50.69088,53.03125 10.5,53.03125 z M 180.65625,114.46875 L -98.15625,275.4375 C -67.06578,288.34458 -29.69087,295.875 10.5,295.875 C 118.53428,295.875 206.1875,241.46607 206.1875,174.4375 C 206.1875,152.62488 196.90666,132.1671 180.65625,114.46875 z"
       id="path2809" />
    <path
       style="fill:#782121;fill-opacity:1;fill-rule:evenodd;stroke:#000000;stroke-width:2;stroke-linecap:butt;stroke-linejoin:miter;marker:none;marker-start:none;marker-mid:none;marker-end:none;stroke-miterlimit:4;stroke-dasharray:none;stroke-dashoffset:0;stroke-opacity:1;visibility:visible"
       d="M -185.21875,174.4375 L -185.21875,204.4375 L -185.21875,244.4375 C -185.21875,311.46607 -97.53429,365.875 10.5,365.875 C 118.53429,365.875 206.1875,311.46607 206.1875,244.4375 L 206.1875,204.4375 L 206.1875,174.4375 C 194.98559,271.24733 91.35159,288.39128 10.5,295.875 C -29.69087,295.875 -67.06578,288.34458 -98.15625,275.4375 L -98.15625,305.4375 C -123.43588,294.94205 -144.54792,280.88792 -159.65625,264.4375 L -159.65625,234.4375 C -172.4308,220.52945 -180.92037,204.92092 -183.96875,188.28125 C -184.2495,183.83084 -184.8611,179.47195 -185.21875,174.4375 z"
       id="path2811"
       sodipodi:nodetypes="cccscccccccccc" />
    <path
       style="fill:#808080;fill-opacity:1;fill-rule:evenodd;stroke:#000000;stroke-width:2;stroke-linecap:butt;stroke-linejoin:miter;marker:none;marker-start:none;marker-mid:none;marker-end:none;stroke-miterlimit:4;stroke-dasharray:none;stroke-dashoffset:0;stroke-opacity:1;visibility:visible"
       id="path2813"
       d="M -159.65625,234.4375 L 119.125,73.46875 L 119.125,103.46875 L -159.65625,264.4375 L -159.65625,234.4375 z" />
    <path
       id="path3727"
       d="M -158.67001,-10.975374 L -136.67001,-10.975374 L -136.67001,-82.297574 L -158.67001,-82.297574 L -158.67001,-10.975374 z M -114.67001,-10.975374 L -114.38881,-10.975374 L -92.670008,-10.975374 L -92.670008,-82.297574 L -114.38881,-82.297574 L -114.67001,-82.297574 L -114.67001,-10.975374 z M -70.670008,-10.975374 L -70.076308,-10.975374 L -48.670008,-10.975374 L -48.670008,-82.297574 L -70.076308,-82.297574 L -70.670008,-82.297574 L -70.670008,-10.975374 z M -26.670008,-10.975374 L -25.795008,-10.975374 L -4.6700082,-10.975374 L -4.6700082,-82.297574 L -25.795008,-82.297574 L -26.670008,-82.297574 L -26.670008,-10.975374 z M 17.329942,-10.975374 L 18.517442,-10.975374 L 39.329942,-10.975374 L 39.329942,-82.297574 L 18.517442,-82.297574 L 17.329942,-82.297574 L 17.329942,-10.975374 z M 61.329942,-10.975374 L 62.798692,-10.975374 L 83.329942,-10.975374 L 83.329942,-82.297574 L 62.798692,-82.297574 L 61.329942,-82.297574 L 61.329942,-10.975374 z M 105.32994,-10.975374 L 107.11119,-10.975374 L 127.32994,-10.975374 L 127.32994,-82.297574 L 107.11119,-82.297574 L 105.32994,-82.297574 L 105.32994,-10.975374 z M 149.32994,-10.975374 L 151.39244,-10.975374 L 171.32994,-10.975374 L 171.32994,-82.297574 L 151.39244,-82.297574 L 149.32994,-82.297574 L 149.32994,-10.975374 z M 193.32994,-10.975374 L 195.70494,-10.975374 L 215.32994,-10.975374 L 215.32994,-82.297574 L 195.70494,-82.297574 L 193.32994,-82.297574 L 193.32994,-10.975374 z M 237.32994,-10.975374 L 239.98619,-10.975374 L 259.32994,-10.975374 L 259.32994,-82.297574 L 239.98619,-82.297574 L 237.32994,-82.297574 L 237.32994,-10.975374 z M 281.32994,-10.975374 L 284.29869,-10.975374 L 303.32994,-10.975374 L 303.32994,-82.297574 L 284.29869,-82.297574 L 281.32994,-82.297574 L 281.32994,-10.975374 z M 325.32994,-10.975374 L 328.61119,-10.975374 L 347.32994,-10.975374 L 347.32994,-82.297574 L 328.61119,-82.297574 L 325.32994,-82.297574 L 325.32994,-10.975374 z M 369.32994,-10.975374 L 372.89244,-10.975374 L 391.32994,-10.975374 L 391.32994,-82.297574 L 372.89244,-82.297574 L 369.32994,-82.297574 L 369.32994,-10.975374 z M 413.32994,-10.975374 L 417.20494,-10.975374 L 435.32994,-10.975374 L 435.32994,-82.297574 L 417.20494,-82.297574 L 413.32994,-82.297574 L 413.32994,-10.975374 z M 457.32994,-10.975374 L 461.48619,-10.975374 L 479.32994,-10.975374 L 479.32994,-82.297574 L 461.48619,-82.297574 L 457.32994,-82.297574 L 457.32994,-10.975374 z M 501.32994,-10.975374 L 505.79869,-10.975374 L 523.32994,-10.975374 L 523.32994,-82.297574 L 505.79869,-82.297574 L 501.32994,-82.297574 L 501.32994,-10.975374 z M 545.32994,-10.975374 L 550.07994,-10.975374 L 550.07994,-82.297574 L 545.32994,-82.297574 L 545.32994,-10.975374 z"
       style="opacity:1;fill:#000000;fill-opacity:1;fill-rule:evenodd;stroke:none;stroke-width:5.5;stroke-linecap:butt;stroke-linejoin:miter;marker:none;stroke-miterlimit:4;stroke-dasharray:22, 22;stroke-dashoffset:0;stroke-opacity:1;visibility:visible;display:inline;overflow:visible;enable-background:accumulate" />
    <path
       sodipodi:nodetypes="ccccccccccccccccccccccccccccccccc"
       id="path2425"
       d="M -156.25271,-114.01467 L -133.89961,-114.01467 L -111.54651,-114.01467 L -89.193408,-114.01467 L -66.840308,-114.01467 L -44.487208,-114.01467 L -22.134208,-114.01467 L 0.2189318,-114.01467 L 22.572022,-114.01467 L 44.925112,-114.01467 L 67.278212,-114.01467 L 89.631302,-114.01467 L 111.98439,-114.01467 L 134.33748,-114.01467 L 156.69057,-114.01467 L 179.04366,-114.01467 L 201.39675,-114.01467 L 223.74985,-114.01467 L 246.10294,-114.01467 L 268.45603,-114.01467 L 290.80912,-114.01467 L 313.16221,-114.01467 L 335.5153,-114.01467 L 357.8684,-114.01467 L 380.22149,-114.01467 L 402.57458,-114.01467 L 424.92767,-114.01467 L 447.28076,-114.01467 L 469.63385,-114.01467 L 491.98695,-114.01467 L 514.34004,-114.01467 L 536.69313,-114.01467 L 559.04622,-114.01467"
       style="fill:none;fill-rule:evenodd;stroke:#000000;stroke-width:7;stroke-linecap:butt;stroke-linejoin:miter;stroke-miterlimit:4;stroke-dasharray:28, 28;stroke-dashoffset:0;stroke-opacity:1;display:inline" />
  </g>
  <g
     inkscape:groupmode="layer"
     id="layer3"
     inkscape:label="capsula"
     style="display:inline">
    <rect
       style="fill:#000000;fill-opacity:1;stroke:none"
       id="rect4376"
       width="832.18109"
       height="848.19904"
       x="-5.9174995"
       y="-254.46834"
       rx="50"
       ry="50"
       inkscape:export-filename="C:\Users\Alex\Desktop\96.png"
       inkscape:export-xdpi="10.17"
       inkscape:export-ydpi="10.17" />
    <rect
       ry="50"
       rx="50"
       y="-6.019062"
       x="-254.11307"
       height="833.08417"
       width="847.5741"
       id="rect4642"
       style="opacity:0.5;fill:url(#linearGradient4909);fill-opacity:1;stroke:none;display:inline"
       transform="matrix(0,1,1,0,0,0)"
       inkscape:export-filename="C:\Users\Alex\Desktop\96.png"
       inkscape:export-xdpi="10.17"
       inkscape:export-ydpi="10.17" />
    <g
       id="g3891"
       transform="matrix(0.73273676,0,0,0.73273676,221.71701,305.25319)">
      <path
         id="rect2817"
         d="m 176.76342,15.119775 435.60028,0 c 86.46467,0 156.0734,70.773656 156.0734,158.685335 0,87.91168 -69.60873,158.68533 -156.0734,158.68533 l -435.60028,0 c -86.464669,0 -156.073451,-70.77365 -156.073451,-158.68533 0,-87.911679 69.608782,-158.685335 156.073451,-158.685335 z"
         style="fill:url(#linearGradient3896);fill-opacity:1;fill-rule:evenodd;stroke:#000000;stroke-width:3.97180414;stroke-linecap:butt;stroke-linejoin:miter;stroke-miterlimit:4;stroke-opacity:1;stroke-dashoffset:0;marker:none;visibility:visible;display:inline;overflow:visible;enable-background:accumulate"
         inkscape:connector-curvature="0" />
      <path
         style="fill:url(#linearGradient3898);fill-opacity:1;fill-rule:evenodd;stroke:#000000;stroke-width:3.97180414;stroke-linecap:butt;stroke-linejoin:miter;stroke-miterlimit:4;stroke-opacity:1;stroke-dasharray:none;stroke-dashoffset:0;marker:none;visibility:visible;display:inline;overflow:visible;enable-background:accumulate"
         d="m 403.10139,11.75709 0,324.09891 -227.05506,0 c -88.299546,0 -159.362896,-72.28617 -159.362896,-162.06543 0,-89.779242 71.06335,-162.03348 159.362896,-162.03348 l 227.05506,0 z"
         id="rect2819"
         inkscape:connector-curvature="0" />
      <path
         style="opacity:0.33177568;fill:url(#linearGradient3900);fill-opacity:1;fill-rule:evenodd;stroke:none;stroke-width:2;marker:none;visibility:visible;display:inline;overflow:visible;enable-background:accumulate"
         d="m 612.3637,15.119765 -435.60028,0 c -86.464669,0 -156.073451,70.773656 -156.073451,158.685335 0,87.91168 2.666591,-58.53982 128.973851,-40.30914 94.45637,13.63346 179.51235,-3.11007 254.39996,-13.11492 2.23449,-0.2985 -0.36061,14.37925 1.86452,14.08462 69.14506,-9.15543 133.92436,-26.09875 201.41696,-9.13357 114.66517,28.82266 161.09184,136.38469 161.09184,48.47301 0,-87.911679 -69.60873,-158.685335 -156.0734,-158.685335 z"
         id="rect2840"
         sodipodi:nodetypes="ccssssssc"
         inkscape:connector-curvature="0" />
    </g>
    <path
       sodipodi:nodetypes="ccccccc"
       inkscape:connector-curvature="0"
       id="path4343"
       d="m -1081.6814,602.17524 216.97514,-380.47369 65.36093,102.50419 179.69234,-415.10242 79.33058,258.3313 137.10307,-150.719208 139.00405,397.886938"
       style="opacity:0.75;fill:none;stroke:#000000;stroke-width:51.61738968;stroke-linecap:round;stroke-linejoin:miter;stroke-miterlimit:4;stroke-opacity:1;stroke-dasharray:none;stroke-dashoffset:0;filter:url(#filter4349)"
       transform="matrix(1.0030267,0,0,0.95900614,1091.6628,-31.330121)"
       inkscape:export-filename="C:\Users\Alex\Desktop\96.png"
       inkscape:export-xdpi="10.17"
       inkscape:export-ydpi="10.17" />
    <path
       style="fill:none;stroke:#7fcb1d;stroke-width:50.79001617;stroke-linecap:square;stroke-linejoin:miter;stroke-miterlimit:4;stroke-opacity:1;stroke-dasharray:none;stroke-dashoffset:0"
       d="M -14.146601,532.37026 214.30288,167.6587 283.12033,265.91639 472.31543,-131.98932 555.84128,115.63992 700.19484,-28.835347 846.5499,352.56807"
       id="path4217"
       inkscape:connector-curvature="0"
       sodipodi:nodetypes="ccccccc"
       inkscape:export-filename="C:\Users\Alex\Desktop\96.png"
       inkscape:export-xdpi="10.17"
       inkscape:export-ydpi="10.17" />
  </g>
</svg>
